<?xml version="1.0" encoding="UTF-8" standalone="no"?>
<!DOCTYPE svg PUBLIC "-//W3C//DTD SVG 1.1//EN"
 "http://www.w3.org/Graphics/SVG/1.1/DTD/svg11.dtd">
<!-- Generated by graphviz version 2.43.0 (0)
 -->
<!-- Pages: 1 -->
<svg width="1386pt" height="261pt"
 viewBox="0.00 0.00 1386.00 261.00" xmlns="http://www.w3.org/2000/svg" xmlns:xlink="http://www.w3.org/1999/xlink">
<g id="graph0" class="graph" transform="scale(1 1) rotate(0) translate(4 257)">
<polygon fill="white" stroke="transparent" points="-4,4 -4,-257 1382,-257 1382,4 -4,4"/>
<text text-anchor="middle" x="689" y="-7.8" font-family="Times,serif" font-size="14.00">https://github.com/gnolang/roadmap &#45; generated on 2023/04/13 12:31</text>
<!-- https://github.com/gnolang/roadmap/issues/6 -->
<g id="node1" class="node">
<title>https://github.com/gnolang/roadmap/issues/6</title>
<g id="a_node1"><a xlink:href="https://github.com/gnolang/roadmap/issues/6" xlink:title="Solid and straightforward roadmap">
<path fill="none" stroke="black" d="M563,-253C563,-253 318,-253 318,-253 312,-253 306,-247 306,-241 306,-241 306,-229 306,-229 306,-223 312,-217 318,-217 318,-217 563,-217 563,-217 569,-217 575,-223 575,-229 575,-229 575,-241 575,-241 575,-247 569,-253 563,-253"/>
<text text-anchor="middle" x="440.5" y="-231.3" font-family="Times,serif" font-size="14.00">Solid and straightforward roadmap</text>
</a>
</g>
</g>
<!-- https://github.com/gnolang/roadmap/issues/7 -->
<g id="node2" class="node">
<title>https://github.com/gnolang/roadmap/issues/7</title>
<g id="a_node2"><a xlink:href="https://github.com/gnolang/roadmap/issues/7" xlink:title="Contributors&#39; DAO leads the project">
<path fill="none" stroke="black" d="M877,-253C877,-253 628,-253 628,-253 622,-253 616,-247 616,-241 616,-241 616,-229 616,-229 616,-223 622,-217 628,-217 628,-217 877,-217 877,-217 883,-217 889,-223 889,-229 889,-229 889,-241 889,-241 889,-247 883,-253 877,-253"/>
<text text-anchor="middle" x="752.5" y="-231.3" font-family="Times,serif" font-size="14.00">Contributors&#39; DAO leads the project</text>
</a>
</g>
</g>
<!-- https://github.com/gnolang/roadmap/issues/6&#45;&gt;https://github.com/gnolang/roadmap/issues/7 -->
<g id="edge1" class="edge">
<title>https://github.com/gnolang/roadmap/issues/6&#45;&gt;https://github.com/gnolang/roadmap/issues/7</title>
<path fill="none" stroke="black" d="M575.22,-235C585.3,-235 595.5,-235 605.64,-235"/>
<polygon fill="black" stroke="black" points="605.77,-238.5 615.77,-235 605.77,-231.5 605.77,-238.5"/>
</g>
<!-- https://github.com/gnolang/roadmap/issues/8 -->
<g id="node3" class="node">
<title>https://github.com/gnolang/roadmap/issues/8</title>
<g id="a_node3"><a xlink:href="https://github.com/gnolang/roadmap/issues/8" xlink:title="Gno.land is designed for longevity.">
<path fill="#eeeeee" stroke="black" d="M1181,-226C1181,-226 942,-226 942,-226 936,-226 930,-220 930,-214 930,-214 930,-202 930,-202 930,-196 936,-190 942,-190 942,-190 1181,-190 1181,-190 1187,-190 1193,-196 1193,-202 1193,-202 1193,-214 1193,-214 1193,-220 1187,-226 1181,-226"/>
<text text-anchor="middle" x="1061.5" y="-204.3" font-family="Times,serif" font-size="14.00">Gno.land is designed for longevity.</text>
</a>
</g>
</g>
<!-- https://github.com/gnolang/roadmap/issues/7&#45;&gt;https://github.com/gnolang/roadmap/issues/8 -->
<g id="edge8" class="edge">
<title>https://github.com/gnolang/roadmap/issues/7&#45;&gt;https://github.com/gnolang/roadmap/issues/8</title>
<path fill="none" stroke="black" d="M889.05,-223.08C899.17,-222.19 909.39,-221.29 919.54,-220.4"/>
<polygon fill="black" stroke="black" points="920.01,-223.87 929.66,-219.51 919.4,-216.9 920.01,-223.87"/>
</g>
<!-- https://github.com/gnolang/roadmap/issues/9 -->
<g id="node4" class="node">
<title>https://github.com/gnolang/roadmap/issues/9</title>
<g id="a_node4"><a xlink:href="https://github.com/gnolang/roadmap/issues/9" xlink:title="Tendermint2 is stable and adaptable.">
<path fill="#eeeeee" stroke="black" d="M882,-199C882,-199 623,-199 623,-199 617,-199 611,-193 611,-187 611,-187 611,-175 611,-175 611,-169 617,-163 623,-163 623,-163 882,-163 882,-163 888,-163 894,-169 894,-175 894,-175 894,-187 894,-187 894,-193 888,-199 882,-199"/>
<text text-anchor="middle" x="752.5" y="-177.3" font-family="Times,serif" font-size="14.00">Tendermint2 is stable and adaptable.</text>
</a>
</g>
</g>
<!-- https://github.com/gnolang/roadmap/issues/9&#45;&gt;https://github.com/gnolang/roadmap/issues/8 -->
<g id="edge2" class="edge">
<title>https://github.com/gnolang/roadmap/issues/9&#45;&gt;https://github.com/gnolang/roadmap/issues/8</title>
<path fill="none" stroke="black" d="M894.42,-193.39C902.83,-194.13 911.28,-194.88 919.69,-195.62"/>
<polygon fill="black" stroke="black" points="919.64,-199.12 929.9,-196.51 920.25,-192.15 919.64,-199.12"/>
</g>
<!-- https://github.com/gnolang/roadmap/issues/11 -->
<g id="node5" class="node">
<title>https://github.com/gnolang/roadmap/issues/11</title>
<g id="a_node5"><a xlink:href="https://github.com/gnolang/roadmap/issues/11" xlink:title="Proof&#45;of&#45;Contributions MVP">
<path fill="none" stroke="black" d="M534.5,-91C534.5,-91 346.5,-91 346.5,-91 340.5,-91 334.5,-85 334.5,-79 334.5,-79 334.5,-67 334.5,-67 334.5,-61 340.5,-55 346.5,-55 346.5,-55 534.5,-55 534.5,-55 540.5,-55 546.5,-61 546.5,-67 546.5,-67 546.5,-79 546.5,-79 546.5,-85 540.5,-91 534.5,-91"/>
<text text-anchor="middle" x="440.5" y="-69.3" font-family="Times,serif" font-size="14.00">Proof&#45;of&#45;Contributions MVP</text>
</a>
</g>
</g>
<!-- https://github.com/gnolang/roadmap/issues/1 -->
<g id="node6" class="node">
<title>https://github.com/gnolang/roadmap/issues/1</title>
<g id="a_node6"><a xlink:href="https://github.com/gnolang/roadmap/issues/1" xlink:title="Launch Gno.land mainnet">
<path fill="#ffeeee" stroke="black" stroke-width="2" d="M840.5,-145C840.5,-145 664.5,-145 664.5,-145 658.5,-145 652.5,-139 652.5,-133 652.5,-133 652.5,-121 652.5,-121 652.5,-115 658.5,-109 664.5,-109 664.5,-109 840.5,-109 840.5,-109 846.5,-109 852.5,-115 852.5,-121 852.5,-121 852.5,-133 852.5,-133 852.5,-139 846.5,-145 840.5,-145"/>
<text text-anchor="middle" x="752.5" y="-123.3" font-family="Times,serif" font-size="14.00">Launch Gno.land mainnet</text>
</a>
</g>
</g>
<!-- https://github.com/gnolang/roadmap/issues/11&#45;&gt;https://github.com/gnolang/roadmap/issues/1 -->
<g id="edge3" class="edge">
<title>https://github.com/gnolang/roadmap/issues/11&#45;&gt;https://github.com/gnolang/roadmap/issues/1</title>
<path fill="none" stroke="black" d="M545.16,-91.06C576.37,-96.49 610.71,-102.47 642.26,-107.97"/>
<polygon fill="black" stroke="black" points="641.95,-111.47 652.41,-109.74 643.16,-104.57 641.95,-111.47"/>
</g>
<!-- https://github.com/gnolang/roadmap/issues/4 -->
<g id="node8" class="node">
<title>https://github.com/gnolang/roadmap/issues/4</title>
<g id="a_node8"><a xlink:href="https://github.com/gnolang/roadmap/issues/4" xlink:title="IBC1 on Gno.land">
<path fill="none" stroke="black" d="M1120.5,-145C1120.5,-145 1002.5,-145 1002.5,-145 996.5,-145 990.5,-139 990.5,-133 990.5,-133 990.5,-121 990.5,-121 990.5,-115 996.5,-109 1002.5,-109 1002.5,-109 1120.5,-109 1120.5,-109 1126.5,-109 1132.5,-115 1132.5,-121 1132.5,-121 1132.5,-133 1132.5,-133 1132.5,-139 1126.5,-145 1120.5,-145"/>
<text text-anchor="middle" x="1061.5" y="-123.3" font-family="Times,serif" font-size="14.00">IBC1 on Gno.land</text>
</a>
</g>
</g>
<!-- https://github.com/gnolang/roadmap/issues/1&#45;&gt;https://github.com/gnolang/roadmap/issues/4 -->
<g id="edge9" class="edge">
<title>https://github.com/gnolang/roadmap/issues/1&#45;&gt;https://github.com/gnolang/roadmap/issues/4</title>
<path fill="none" stroke="black" d="M852.75,-127C893.92,-127 941.06,-127 980.02,-127"/>
<polygon fill="black" stroke="black" points="980.26,-130.5 990.26,-127 980.26,-123.5 980.26,-130.5"/>
</g>
<!-- https://github.com/gnolang/roadmap/issues/3 -->
<g id="node7" class="node">
<title>https://github.com/gnolang/roadmap/issues/3</title>
<g id="a_node7"><a xlink:href="https://github.com/gnolang/roadmap/issues/3" xlink:title="Tendermint2 MVP is finished">
<path fill="none" stroke="black" d="M540.5,-199C540.5,-199 340.5,-199 340.5,-199 334.5,-199 328.5,-193 328.5,-187 328.5,-187 328.5,-175 328.5,-175 328.5,-169 334.5,-163 340.5,-163 340.5,-163 540.5,-163 540.5,-163 546.5,-163 552.5,-169 552.5,-175 552.5,-175 552.5,-187 552.5,-187 552.5,-193 546.5,-199 540.5,-199"/>
<text text-anchor="middle" x="440.5" y="-177.3" font-family="Times,serif" font-size="14.00">Tendermint2 MVP is finished</text>
</a>
</g>
</g>
<!-- https://github.com/gnolang/roadmap/issues/3&#45;&gt;https://github.com/gnolang/roadmap/issues/9 -->
<g id="edge4" class="edge">
<title>https://github.com/gnolang/roadmap/issues/3&#45;&gt;https://github.com/gnolang/roadmap/issues/9</title>
<path fill="none" stroke="black" d="M552.54,-181C568.22,-181 584.56,-181 600.83,-181"/>
<polygon fill="black" stroke="black" points="600.95,-184.5 610.95,-181 600.95,-177.5 600.95,-184.5"/>
</g>
<!-- https://github.com/gnolang/roadmap/issues/3&#45;&gt;https://github.com/gnolang/roadmap/issues/1 -->
<g id="edge5" class="edge">
<title>https://github.com/gnolang/roadmap/issues/3&#45;&gt;https://github.com/gnolang/roadmap/issues/1</title>
<path fill="none" stroke="black" d="M545.16,-162.94C576.37,-157.51 610.71,-151.53 642.26,-146.03"/>
<polygon fill="black" stroke="black" points="643.16,-149.43 652.41,-144.26 641.95,-142.53 643.16,-149.43"/>
</g>
<!-- https://github.com/gnolang/roadmap/issues/5 -->
<g id="node9" class="node">
<title>https://github.com/gnolang/roadmap/issues/5</title>
<g id="a_node9"><a xlink:href="https://github.com/gnolang/roadmap/issues/5" xlink:title="ICSv1 on Gno.land">
<path fill="none" stroke="black" d="M1366,-145C1366,-145 1241,-145 1241,-145 1235,-145 1229,-139 1229,-133 1229,-133 1229,-121 1229,-121 1229,-115 1235,-109 1241,-109 1241,-109 1366,-109 1366,-109 1372,-109 1378,-115 1378,-121 1378,-121 1378,-133 1378,-133 1378,-139 1372,-145 1366,-145"/>
<text text-anchor="middle" x="1303.5" y="-123.3" font-family="Times,serif" font-size="14.00">ICSv1 on Gno.land</text>
</a>
</g>
</g>
<!-- https://github.com/gnolang/roadmap/issues/4&#45;&gt;https://github.com/gnolang/roadmap/issues/5 -->
<g id="edge6" class="edge">
<title>https://github.com/gnolang/roadmap/issues/4&#45;&gt;https://github.com/gnolang/roadmap/issues/5</title>
<path fill="none" stroke="black" d="M1132.56,-127C1159.43,-127 1190.35,-127 1218.4,-127"/>
<polygon fill="black" stroke="black" points="1218.59,-130.5 1228.59,-127 1218.59,-123.5 1218.59,-130.5"/>
</g>
<!-- https://github.com/gnolang/roadmap/issues/2 -->
<g id="node10" class="node">
<title>https://github.com/gnolang/roadmap/issues/2</title>
<g id="a_node10"><a xlink:href="https://github.com/gnolang/roadmap/issues/2" xlink:title="GnoVM MVP is finished">
<path fill="none" stroke="black" d="M521,-145C521,-145 360,-145 360,-145 354,-145 348,-139 348,-133 348,-133 348,-121 348,-121 348,-115 354,-109 360,-109 360,-109 521,-109 521,-109 527,-109 533,-115 533,-121 533,-121 533,-133 533,-133 533,-139 527,-145 521,-145"/>
<text text-anchor="middle" x="440.5" y="-123.3" font-family="Times,serif" font-size="14.00">GnoVM MVP is finished</text>
</a>
</g>
</g>
<!-- https://github.com/gnolang/roadmap/issues/2&#45;&gt;https://github.com/gnolang/roadmap/issues/1 -->
<g id="edge7" class="edge">
<title>https://github.com/gnolang/roadmap/issues/2&#45;&gt;https://github.com/gnolang/roadmap/issues/1</title>
<path fill="none" stroke="black" d="M533.25,-127C567.38,-127 606.44,-127 641.99,-127"/>
<polygon fill="black" stroke="black" points="642.41,-130.5 652.41,-127 642.41,-123.5 642.41,-130.5"/>
</g>
<!-- https://github.com/gnolang/roadmap/issues/10 -->
<g id="node11" class="node">
<title>https://github.com/gnolang/roadmap/issues/10</title>
<g id="a_node11"><a xlink:href="https://github.com/gnolang/roadmap/issues/10" xlink:title="Tendermint2 is secure and audited.">
<path fill="none" stroke="black" d="M258,-199C258,-199 12,-199 12,-199 6,-199 0,-193 0,-187 0,-187 0,-175 0,-175 0,-169 6,-163 12,-163 12,-163 258,-163 258,-163 264,-163 270,-169 270,-175 270,-175 270,-187 270,-187 270,-193 264,-199 258,-199"/>
<text text-anchor="middle" x="135" y="-177.3" font-family="Times,serif" font-size="14.00">Tendermint2 is secure and audited.</text>
</a>
</g>
</g>
<!-- https://github.com/gnolang/roadmap/issues/10&#45;&gt;https://github.com/gnolang/roadmap/issues/3 -->
<g id="edge10" class="edge">
<title>https://github.com/gnolang/roadmap/issues/10&#45;&gt;https://github.com/gnolang/roadmap/issues/3</title>
<path fill="none" stroke="black" d="M270,-181C286.03,-181 302.32,-181 318.14,-181"/>
<polygon fill="black" stroke="black" points="318.47,-184.5 328.47,-181 318.47,-177.5 318.47,-184.5"/>
</g>
<!-- https://github.com/gnolang/roadmap/issues/12 -->
<g id="node12" class="node">
<title>https://github.com/gnolang/roadmap/issues/12</title>
<g id="a_node12"><a xlink:href="https://github.com/gnolang/roadmap/issues/12" xlink:title="Evaluation DAO MVP">
<path fill="none" stroke="black" d="M207,-91C207,-91 63,-91 63,-91 57,-91 51,-85 51,-79 51,-79 51,-67 51,-67 51,-61 57,-55 63,-55 63,-55 207,-55 207,-55 213,-55 219,-61 219,-67 219,-67 219,-79 219,-79 219,-85 213,-91 207,-91"/>
<text text-anchor="middle" x="135" y="-69.3" font-family="Times,serif" font-size="14.00">Evaluation DAO MVP</text>
</a>
</g>
</g>
<!-- https://github.com/gnolang/roadmap/issues/12&#45;&gt;https://github.com/gnolang/roadmap/issues/11 -->
<g id="edge11" class="edge">
<title>https://github.com/gnolang/roadmap/issues/12&#45;&gt;https://github.com/gnolang/roadmap/issues/11</title>
<path fill="none" stroke="black" d="M219.33,-73C251.68,-73 289.26,-73 324.13,-73"/>
<polygon fill="black" stroke="black" points="324.37,-76.5 334.37,-73 324.37,-69.5 324.37,-76.5"/>
</g>
</g>
</svg>
